%TF.GenerationSoftware,KiCad,Pcbnew,9.0.2*%
%TF.CreationDate,2025-11-08T18:17:45-05:00*%
%TF.ProjectId,crossover,63726f73-736f-4766-9572-2e6b69636164,rev?*%
%TF.SameCoordinates,Original*%
%TF.FileFunction,Copper,L2,Bot*%
%TF.FilePolarity,Positive*%
%FSLAX46Y46*%
G04 Gerber Fmt 4.6, Leading zero omitted, Abs format (unit mm)*
G04 Created by KiCad (PCBNEW 9.0.2) date 2025-11-08 18:17:45*
%MOMM*%
%LPD*%
G01*
G04 APERTURE LIST*
G04 Aperture macros list*
%AMRoundRect*
0 Rectangle with rounded corners*
0 $1 Rounding radius*
0 $2 $3 $4 $5 $6 $7 $8 $9 X,Y pos of 4 corners*
0 Add a 4 corners polygon primitive as box body*
4,1,4,$2,$3,$4,$5,$6,$7,$8,$9,$2,$3,0*
0 Add four circle primitives for the rounded corners*
1,1,$1+$1,$2,$3*
1,1,$1+$1,$4,$5*
1,1,$1+$1,$6,$7*
1,1,$1+$1,$8,$9*
0 Add four rect primitives between the rounded corners*
20,1,$1+$1,$2,$3,$4,$5,0*
20,1,$1+$1,$4,$5,$6,$7,0*
20,1,$1+$1,$6,$7,$8,$9,0*
20,1,$1+$1,$8,$9,$2,$3,0*%
G04 Aperture macros list end*
%TA.AperFunction,ComponentPad*%
%ADD10C,1.620000*%
%TD*%
%TA.AperFunction,ComponentPad*%
%ADD11RoundRect,0.250000X0.950000X0.550000X-0.950000X0.550000X-0.950000X-0.550000X0.950000X-0.550000X0*%
%TD*%
%TA.AperFunction,ComponentPad*%
%ADD12O,2.400000X1.600000*%
%TD*%
%TA.AperFunction,ComponentPad*%
%ADD13R,1.700000X1.700000*%
%TD*%
%TA.AperFunction,ComponentPad*%
%ADD14C,1.700000*%
%TD*%
%TA.AperFunction,ViaPad*%
%ADD15C,3.000000*%
%TD*%
%TA.AperFunction,Conductor*%
%ADD16C,0.300000*%
%TD*%
G04 APERTURE END LIST*
D10*
%TO.P,RV2,1,1*%
%TO.N,Net-(R23-Pad2)*%
X142000000Y-79169999D03*
%TO.P,RV2,2,2*%
%TO.N,Mid*%
X144500000Y-74169999D03*
%TO.P,RV2,3,3*%
%TO.N,Net-(R22-Pad1)*%
X147000000Y-79169999D03*
%TD*%
D11*
%TO.P,U7,1,NULL*%
%TO.N,unconnected-(U7-NULL-Pad1)*%
X116810000Y-72190000D03*
D12*
%TO.P,U7,2,-*%
%TO.N,Net-(U7--)*%
X116810000Y-74730000D03*
%TO.P,U7,3,+*%
%TO.N,GND*%
X116810000Y-77270000D03*
%TO.P,U7,4,V-*%
%TO.N,-5v*%
X116810000Y-79810000D03*
%TO.P,U7,5,NULL*%
%TO.N,unconnected-(U7-NULL-Pad5)*%
X109190000Y-79810000D03*
%TO.P,U7,6*%
%TO.N,BF_In*%
X109190000Y-77270000D03*
%TO.P,U7,7,V+*%
%TO.N,+5v*%
X109190000Y-74730000D03*
%TO.P,U7,8,NC*%
%TO.N,unconnected-(U7-NC-Pad8)*%
X109190000Y-72190000D03*
%TD*%
D11*
%TO.P,U8,1,NULL*%
%TO.N,unconnected-(U8-NULL-Pad1)*%
X131810000Y-72190000D03*
D12*
%TO.P,U8,2,-*%
%TO.N,Net-(U8--)*%
X131810000Y-74730000D03*
%TO.P,U8,3,+*%
%TO.N,GND*%
X131810000Y-77270000D03*
%TO.P,U8,4,V-*%
%TO.N,-5v*%
X131810000Y-79810000D03*
%TO.P,U8,5,NULL*%
%TO.N,unconnected-(U8-NULL-Pad5)*%
X124190000Y-79810000D03*
%TO.P,U8,6*%
%TO.N,Vout*%
X124190000Y-77270000D03*
%TO.P,U8,7,V+*%
%TO.N,+5v*%
X124190000Y-74730000D03*
%TO.P,U8,8,NC*%
%TO.N,unconnected-(U8-NC-Pad8)*%
X124190000Y-72190000D03*
%TD*%
D10*
%TO.P,RV1,1,1*%
%TO.N,Net-(R21-Pad2)*%
X142000000Y-87340000D03*
%TO.P,RV1,2,2*%
%TO.N,High*%
X144500000Y-82340000D03*
%TO.P,RV1,3,3*%
%TO.N,Net-(R20-Pad1)*%
X147000000Y-87340000D03*
%TD*%
%TO.P,RV3,1,1*%
%TO.N,Net-(R25-Pad2)*%
X142000000Y-71000000D03*
%TO.P,RV3,2,2*%
%TO.N,Low*%
X144500000Y-66000000D03*
%TO.P,RV3,3,3*%
%TO.N,Net-(R24-Pad1)*%
X147000000Y-71000000D03*
%TD*%
D13*
%TO.P,J1,1,Pin_1*%
%TO.N,GND*%
X103250000Y-87079999D03*
D14*
%TO.P,J1,2,Pin_2*%
%TO.N,+5v*%
X103250000Y-84539999D03*
%TO.P,J1,3,Pin_3*%
%TO.N,-5v*%
X103250000Y-82000000D03*
%TO.P,J1,4,Pin_4*%
%TO.N,Vin*%
X103250000Y-79459999D03*
%TO.P,J1,5,Pin_5*%
%TO.N,BF_In*%
X103250000Y-76919999D03*
%TO.P,J1,6,Pin_6*%
%TO.N,High*%
X103250000Y-74379999D03*
%TO.P,J1,7,Pin_7*%
%TO.N,Mid*%
X103250000Y-71839999D03*
%TO.P,J1,8,Pin_8*%
%TO.N,Low*%
X103250000Y-69299998D03*
%TO.P,J1,9,Pin_9*%
%TO.N,Vout*%
X103250000Y-66759999D03*
%TD*%
D15*
%TO.N,-5v*%
X126500000Y-83500000D03*
X120816852Y-83683148D03*
%TO.N,+5v*%
X107444732Y-69055268D03*
X128250000Y-65750000D03*
X99500000Y-70250000D03*
X120500000Y-71250000D03*
%TO.N,Vin*%
X107000000Y-83250000D03*
X99000000Y-73750000D03*
%TO.N,Vout*%
X120250000Y-80500000D03*
X120500000Y-76250000D03*
%TO.N,High*%
X105891761Y-75814751D03*
X107250000Y-87000000D03*
%TO.N,GND*%
X119000000Y-86750000D03*
X113000000Y-77500000D03*
X117287006Y-83212994D03*
X123000000Y-86750000D03*
%TO.N,BF_In*%
X106425306Y-78969961D03*
X112500000Y-67250000D03*
%TO.N,Net-(U7--)*%
X111000000Y-87850000D03*
X116718432Y-68738453D03*
%TO.N,Net-(U8--)*%
X137000000Y-74250000D03*
X133250000Y-83750000D03*
%TD*%
D16*
%TO.N,High*%
X108851000Y-85399000D02*
X107250000Y-87000000D01*
X108851000Y-82483290D02*
X108851000Y-85399000D01*
X107232073Y-80864363D02*
X108851000Y-82483290D01*
X104533094Y-79763341D02*
X105634116Y-80864363D01*
X105891761Y-75814751D02*
X105832290Y-75874222D01*
X105832290Y-75874222D02*
X105832290Y-76890133D01*
X104533094Y-78189329D02*
X104533094Y-79763341D01*
X105634116Y-80864363D02*
X107232073Y-80864363D01*
X105832290Y-76890133D02*
X104533094Y-78189329D01*
%TO.N,-5v*%
X126316852Y-83683148D02*
X126500000Y-83500000D01*
X120816852Y-83683148D02*
X126316852Y-83683148D01*
%TO.N,+5v*%
X107444732Y-69055268D02*
X107194732Y-69055268D01*
X99750998Y-70500998D02*
X99500000Y-70250000D01*
X105749002Y-70500998D02*
X99750998Y-70500998D01*
X120500000Y-71250000D02*
X122750000Y-71250000D01*
X107194732Y-69055268D02*
X105749002Y-70500998D01*
X122750000Y-71250000D02*
X128250000Y-65750000D01*
%TO.N,Vin*%
X99000000Y-75250000D02*
X107000000Y-83250000D01*
X99000000Y-73750000D02*
X99000000Y-75250000D01*
%TO.N,Vout*%
X120250000Y-76500000D02*
X120500000Y-76250000D01*
X120250000Y-80500000D02*
X120250000Y-76500000D01*
%TO.N,GND*%
X119000000Y-86750000D02*
X123000000Y-86750000D01*
X113000000Y-77500000D02*
X113000000Y-80500000D01*
X113000000Y-80500000D02*
X115712994Y-83212994D01*
X115712994Y-83212994D02*
X117287006Y-83212994D01*
%TO.N,BF_In*%
X112500000Y-67250000D02*
X111250000Y-68500000D01*
X111250000Y-74697760D02*
X106977799Y-78969961D01*
X106977799Y-78969961D02*
X106425306Y-78969961D01*
X111250000Y-68500000D02*
X111250000Y-74697760D01*
%TO.N,Net-(U7--)*%
X111000000Y-76812994D02*
X115259000Y-72553994D01*
X115259000Y-72553994D02*
X115259000Y-70197885D01*
X111000000Y-87850000D02*
X111000000Y-76812994D01*
X115259000Y-70197885D02*
X116718432Y-68738453D01*
%TO.N,Net-(U8--)*%
X137000000Y-74250000D02*
X137000000Y-80000000D01*
X137000000Y-80000000D02*
X133250000Y-83750000D01*
%TD*%
M02*
