%TF.GenerationSoftware,KiCad,Pcbnew,9.0.2*%
%TF.CreationDate,2025-11-08T18:17:45-05:00*%
%TF.ProjectId,crossover,63726f73-736f-4766-9572-2e6b69636164,rev?*%
%TF.SameCoordinates,Original*%
%TF.FileFunction,Soldermask,Bot*%
%TF.FilePolarity,Negative*%
%FSLAX46Y46*%
G04 Gerber Fmt 4.6, Leading zero omitted, Abs format (unit mm)*
G04 Created by KiCad (PCBNEW 9.0.2) date 2025-11-08 18:17:45*
%MOMM*%
%LPD*%
G01*
G04 APERTURE LIST*
G04 Aperture macros list*
%AMRoundRect*
0 Rectangle with rounded corners*
0 $1 Rounding radius*
0 $2 $3 $4 $5 $6 $7 $8 $9 X,Y pos of 4 corners*
0 Add a 4 corners polygon primitive as box body*
4,1,4,$2,$3,$4,$5,$6,$7,$8,$9,$2,$3,0*
0 Add four circle primitives for the rounded corners*
1,1,$1+$1,$2,$3*
1,1,$1+$1,$4,$5*
1,1,$1+$1,$6,$7*
1,1,$1+$1,$8,$9*
0 Add four rect primitives between the rounded corners*
20,1,$1+$1,$2,$3,$4,$5,0*
20,1,$1+$1,$4,$5,$6,$7,0*
20,1,$1+$1,$6,$7,$8,$9,0*
20,1,$1+$1,$8,$9,$2,$3,0*%
G04 Aperture macros list end*
%ADD10C,1.620000*%
%ADD11RoundRect,0.250000X0.950000X0.550000X-0.950000X0.550000X-0.950000X-0.550000X0.950000X-0.550000X0*%
%ADD12O,2.400000X1.600000*%
%ADD13R,1.700000X1.700000*%
%ADD14C,1.700000*%
%ADD15C,3.000000*%
G04 APERTURE END LIST*
D10*
%TO.C,RV2*%
X142000000Y-79169999D03*
X144500000Y-74169999D03*
X147000000Y-79169999D03*
%TD*%
D11*
%TO.C,U7*%
X116810000Y-72190000D03*
D12*
X116810000Y-74730000D03*
X116810000Y-77270000D03*
X116810000Y-79810000D03*
X109190000Y-79810000D03*
X109190000Y-77270000D03*
X109190000Y-74730000D03*
X109190000Y-72190000D03*
%TD*%
D11*
%TO.C,U8*%
X131810000Y-72190000D03*
D12*
X131810000Y-74730000D03*
X131810000Y-77270000D03*
X131810000Y-79810000D03*
X124190000Y-79810000D03*
X124190000Y-77270000D03*
X124190000Y-74730000D03*
X124190000Y-72190000D03*
%TD*%
D10*
%TO.C,RV1*%
X142000000Y-87340000D03*
X144500000Y-82340000D03*
X147000000Y-87340000D03*
%TD*%
%TO.C,RV3*%
X142000000Y-71000000D03*
X144500000Y-66000000D03*
X147000000Y-71000000D03*
%TD*%
D13*
%TO.C,J1*%
X103250000Y-87079999D03*
D14*
X103250000Y-84539999D03*
X103250000Y-82000000D03*
X103250000Y-79459999D03*
X103250000Y-76919999D03*
X103250000Y-74379999D03*
X103250000Y-71839999D03*
X103250000Y-69299998D03*
X103250000Y-66759999D03*
%TD*%
D15*
X126500000Y-83500000D03*
X120816852Y-83683148D03*
X107444732Y-69055268D03*
X128250000Y-65750000D03*
X99500000Y-70250000D03*
X120500000Y-71250000D03*
X107000000Y-83250000D03*
X99000000Y-73750000D03*
X120250000Y-80500000D03*
X120500000Y-76250000D03*
X105891761Y-75814751D03*
X107250000Y-87000000D03*
X119000000Y-86750000D03*
X113000000Y-77500000D03*
X117287006Y-83212994D03*
X123000000Y-86750000D03*
X106425306Y-78969961D03*
X112500000Y-67250000D03*
X111000000Y-87850000D03*
X116718432Y-68738453D03*
X137000000Y-74250000D03*
X133250000Y-83750000D03*
M02*
