M48
; DRILL file {KiCad 9.0.2} date 2025-11-08T18:17:47-0500
; FORMAT={-:-/ absolute / metric / decimal}
; #@! TF.CreationDate,2025-11-08T18:17:47-05:00
; #@! TF.GenerationSoftware,Kicad,Pcbnew,9.0.2
; #@! TF.FileFunction,Plated,1,2,PTH
FMAT,2
METRIC
; #@! TA.AperFunction,Plated,PTH,ComponentDrill
T1C0.800
; #@! TA.AperFunction,Plated,PTH,ViaDrill
T2C0.900
; #@! TA.AperFunction,Plated,PTH,ComponentDrill
T3C0.900
; #@! TA.AperFunction,Plated,PTH,ComponentDrill
T4C1.000
%
G90
G05
T1
X109.19Y-72.19
X109.19Y-74.73
X109.19Y-77.27
X109.19Y-79.81
X116.81Y-72.19
X116.81Y-74.73
X116.81Y-77.27
X116.81Y-79.81
X124.19Y-72.19
X124.19Y-74.73
X124.19Y-77.27
X124.19Y-79.81
X131.81Y-72.19
X131.81Y-74.73
X131.81Y-77.27
X131.81Y-79.81
T2
X99.0Y-73.75
X99.5Y-70.25
X105.892Y-75.815
X106.425Y-78.97
X107.0Y-83.25
X107.25Y-87.0
X107.445Y-69.055
X111.0Y-87.85
X112.5Y-67.25
X113.0Y-77.5
X116.718Y-68.738
X117.287Y-83.213
X119.0Y-86.75
X120.25Y-80.5
X120.5Y-71.25
X120.5Y-76.25
X120.817Y-83.683
X123.0Y-86.75
X126.5Y-83.5
X128.25Y-65.75
X133.25Y-83.75
X137.0Y-74.25
T3
X142.0Y-71.0
X142.0Y-79.17
X142.0Y-87.34
X144.5Y-66.0
X144.5Y-74.17
X144.5Y-82.34
X147.0Y-71.0
X147.0Y-79.17
X147.0Y-87.34
T4
X103.25Y-66.76
X103.25Y-69.3
X103.25Y-71.84
X103.25Y-74.38
X103.25Y-76.92
X103.25Y-79.46
X103.25Y-82.0
X103.25Y-84.54
X103.25Y-87.08
M30
